


[center][img]http://img705.imageshack.us/img705/6931/fvuae.jpg[/img]



Format : AVI
Format/Info : Audio Video Interleave
Format profile : OpenDML
File size : 1.81 GiB
Duration : 1h 36mn
Overall bit rate : 2 687 Kbps
Writing application : Lavf52.47.0

Video
ID : 0
Format : MPEG-4 Visual
Format profile : Simple@L1
Format settings, BVOP : No
Format settings, QPel : No
Format settings, GMC : No warppoints
Format settings, Matrix : Default (H.263)
Codec ID : FMP4
Duration : 1h 36mn
Bit rate : 2 547 Kbps
Width : 720 pixels
Height : 576 pixels
Display aspect ratio : 16:9
Frame rate : 25.000 fps
Standard : PAL
Color space : YUV
Chroma subsampling : 4:2:0
Bit depth : 8 bits
Scan type : Progressive
Compression mode : Lossy
Bits/(Pixel*Frame) : 0.246
Stream size : 1.72 GiB (95%)
Writing library : Lavc52.48.0

Audio
ID : 1
Format : MPEG Audio
Format version : Version 1
Format profile : Layer 3
Mode : Joint stereo
Mode extension : MS Stereo
Codec ID : 55
Codec ID/Hint : MP3
Duration : 1h 36mn
Bit rate mode : Constant
Bit rate : 128 Kbps
Channel(s) : 2 channels
Sampling rate : 44.1 KHz
Compression mode : Lossy
Stream size : 88.4 MiB (5%)
Alignment : Aligned on interleaves
Interleave, duration : 26 ms (0.65 video frame)
Writing library : LAME3.97
 
http://www.imdb.com/title/tt1568338/


[img]http://img23.imageshack.us/img23/7422/fhxyk.jpg[/img][/center]